<mxfile host="Electron" modified="2024-06-25T11:20:55.351Z" agent="Mozilla/5.0 (Windows NT 10.0; Win64; x64) AppleWebKit/537.36 (KHTML, like Gecko) draw.io/24.6.1 Chrome/124.0.6367.207 Electron/30.0.6 Safari/537.36" etag="98axf5bw0jmjNKPLiXJJ" version="24.6.1" type="device" pages="2">
  <diagram name="Страница — 1" id="-mVTa0DePyqzk4QXyycc">
    <mxGraphModel dx="1008" dy="600" grid="1" gridSize="10" guides="1" tooltips="1" connect="1" arrows="1" fold="1" page="1" pageScale="1" pageWidth="827" pageHeight="1169" math="0" shadow="0">
      <root>
        <mxCell id="0" />
        <mxCell id="1" parent="0" />
        <mxCell id="YBPvFFRGD3DSdkH1i7i_-18" value="" style="rounded=0;whiteSpace=wrap;html=1;" vertex="1" parent="1">
          <mxGeometry x="130" y="10" width="360" height="390" as="geometry" />
        </mxCell>
        <mxCell id="YBPvFFRGD3DSdkH1i7i_-5" value="" style="edgeStyle=orthogonalEdgeStyle;rounded=0;orthogonalLoop=1;jettySize=auto;html=1;" edge="1" parent="1" source="YBPvFFRGD3DSdkH1i7i_-1" target="YBPvFFRGD3DSdkH1i7i_-3">
          <mxGeometry relative="1" as="geometry" />
        </mxCell>
        <mxCell id="YBPvFFRGD3DSdkH1i7i_-6" style="edgeStyle=orthogonalEdgeStyle;rounded=0;orthogonalLoop=1;jettySize=auto;html=1;entryX=0.145;entryY=0;entryDx=0;entryDy=4.35;entryPerimeter=0;exitX=0.75;exitY=1;exitDx=0;exitDy=0;" edge="1" parent="1" source="YBPvFFRGD3DSdkH1i7i_-1" target="YBPvFFRGD3DSdkH1i7i_-4">
          <mxGeometry relative="1" as="geometry" />
        </mxCell>
        <mxCell id="YBPvFFRGD3DSdkH1i7i_-13" style="edgeStyle=orthogonalEdgeStyle;rounded=0;orthogonalLoop=1;jettySize=auto;html=1;" edge="1" parent="1" source="YBPvFFRGD3DSdkH1i7i_-1" target="YBPvFFRGD3DSdkH1i7i_-2">
          <mxGeometry relative="1" as="geometry" />
        </mxCell>
        <mxCell id="YBPvFFRGD3DSdkH1i7i_-1" value="Java микросервис" style="rounded=1;whiteSpace=wrap;html=1;" vertex="1" parent="1">
          <mxGeometry x="140" y="170" width="120" height="60" as="geometry" />
        </mxCell>
        <mxCell id="YBPvFFRGD3DSdkH1i7i_-2" value="Python микросервис" style="rounded=1;whiteSpace=wrap;html=1;" vertex="1" parent="1">
          <mxGeometry x="360" y="170" width="120" height="60" as="geometry" />
        </mxCell>
        <mxCell id="YBPvFFRGD3DSdkH1i7i_-3" value="PostgreSQL" style="shape=cylinder3;whiteSpace=wrap;html=1;boundedLbl=1;backgroundOutline=1;size=15;" vertex="1" parent="1">
          <mxGeometry x="165" y="300" width="70" height="90" as="geometry" />
        </mxCell>
        <mxCell id="YBPvFFRGD3DSdkH1i7i_-4" value="ClickHouse" style="shape=cylinder3;whiteSpace=wrap;html=1;boundedLbl=1;backgroundOutline=1;size=15;" vertex="1" parent="1">
          <mxGeometry x="270" y="300" width="70" height="90" as="geometry" />
        </mxCell>
        <mxCell id="YBPvFFRGD3DSdkH1i7i_-7" style="edgeStyle=orthogonalEdgeStyle;rounded=0;orthogonalLoop=1;jettySize=auto;html=1;entryX=0.855;entryY=0;entryDx=0;entryDy=4.35;entryPerimeter=0;exitX=0.25;exitY=1;exitDx=0;exitDy=0;" edge="1" parent="1" source="YBPvFFRGD3DSdkH1i7i_-2" target="YBPvFFRGD3DSdkH1i7i_-4">
          <mxGeometry relative="1" as="geometry" />
        </mxCell>
        <mxCell id="YBPvFFRGD3DSdkH1i7i_-17" style="edgeStyle=orthogonalEdgeStyle;rounded=0;orthogonalLoop=1;jettySize=auto;html=1;" edge="1" parent="1" target="YBPvFFRGD3DSdkH1i7i_-1">
          <mxGeometry relative="1" as="geometry">
            <mxPoint x="180" y="50" as="sourcePoint" />
            <Array as="points">
              <mxPoint x="200" y="50" />
            </Array>
          </mxGeometry>
        </mxCell>
        <mxCell id="YBPvFFRGD3DSdkH1i7i_-8" value="User&lt;div&gt;&lt;br&gt;&lt;/div&gt;" style="shape=umlActor;verticalLabelPosition=bottom;verticalAlign=top;html=1;outlineConnect=0;" vertex="1" parent="1">
          <mxGeometry x="150" y="20" width="30" height="60" as="geometry" />
        </mxCell>
        <mxCell id="YBPvFFRGD3DSdkH1i7i_-10" value="API" style="text;html=1;align=center;verticalAlign=middle;whiteSpace=wrap;rounded=0;" vertex="1" parent="1">
          <mxGeometry x="185" y="140" width="60" height="30" as="geometry" />
        </mxCell>
        <mxCell id="YBPvFFRGD3DSdkH1i7i_-11" value="Пишет лог" style="text;html=1;align=center;verticalAlign=middle;whiteSpace=wrap;rounded=0;" vertex="1" parent="1">
          <mxGeometry x="230" y="240" width="70" height="30" as="geometry" />
        </mxCell>
        <mxCell id="YBPvFFRGD3DSdkH1i7i_-12" value="Читает лог" style="text;html=1;align=center;verticalAlign=middle;whiteSpace=wrap;rounded=0;" vertex="1" parent="1">
          <mxGeometry x="320" y="240" width="70" height="30" as="geometry" />
        </mxCell>
        <mxCell id="YBPvFFRGD3DSdkH1i7i_-14" value="HTTP интеграция" style="text;html=1;align=center;verticalAlign=middle;whiteSpace=wrap;rounded=0;" vertex="1" parent="1">
          <mxGeometry x="275" y="170" width="60" height="30" as="geometry" />
        </mxCell>
      </root>
    </mxGraphModel>
  </diagram>
  <diagram id="XD1Ft_4nNX5kkqwHnA2o" name="Страница — 2">
    <mxGraphModel dx="1008" dy="698" grid="1" gridSize="10" guides="1" tooltips="1" connect="1" arrows="1" fold="1" page="1" pageScale="1" pageWidth="827" pageHeight="1169" math="0" shadow="0">
      <root>
        <mxCell id="0" />
        <mxCell id="1" parent="0" />
        <mxCell id="P7aK7pZ-oNJQxpM8Jncw-1" style="edgeStyle=orthogonalEdgeStyle;rounded=0;orthogonalLoop=1;jettySize=auto;html=1;" edge="1" parent="1" source="WtncwqSkTByIa6whb1l8-1">
          <mxGeometry relative="1" as="geometry">
            <mxPoint x="140" y="560" as="targetPoint" />
          </mxGeometry>
        </mxCell>
        <mxCell id="WtncwqSkTByIa6whb1l8-1" value="Java микросервис" style="rounded=1;whiteSpace=wrap;html=1;" parent="1" vertex="1">
          <mxGeometry x="80" y="30" width="120" height="60" as="geometry" />
        </mxCell>
        <mxCell id="P7aK7pZ-oNJQxpM8Jncw-2" style="edgeStyle=orthogonalEdgeStyle;rounded=0;orthogonalLoop=1;jettySize=auto;html=1;" edge="1" parent="1" source="WtncwqSkTByIa6whb1l8-2">
          <mxGeometry relative="1" as="geometry">
            <mxPoint x="400" y="560" as="targetPoint" />
          </mxGeometry>
        </mxCell>
        <mxCell id="WtncwqSkTByIa6whb1l8-2" value="Python микросервис" style="rounded=1;whiteSpace=wrap;html=1;" parent="1" vertex="1">
          <mxGeometry x="340" y="30" width="120" height="60" as="geometry" />
        </mxCell>
        <mxCell id="P7aK7pZ-oNJQxpM8Jncw-3" style="edgeStyle=orthogonalEdgeStyle;rounded=0;orthogonalLoop=1;jettySize=auto;html=1;" edge="1" parent="1" source="P7aK7pZ-oNJQxpM8Jncw-4">
          <mxGeometry relative="1" as="geometry">
            <mxPoint x="270" y="560" as="targetPoint" />
          </mxGeometry>
        </mxCell>
        <mxCell id="P7aK7pZ-oNJQxpM8Jncw-4" value="ClickHouse" style="rounded=1;whiteSpace=wrap;html=1;" vertex="1" parent="1">
          <mxGeometry x="210" y="30" width="120" height="60" as="geometry" />
        </mxCell>
        <mxCell id="P7aK7pZ-oNJQxpM8Jncw-5" value="" style="endArrow=classic;html=1;rounded=0;" edge="1" parent="1">
          <mxGeometry width="50" height="50" relative="1" as="geometry">
            <mxPoint x="140" y="160" as="sourcePoint" />
            <mxPoint x="270" y="160" as="targetPoint" />
          </mxGeometry>
        </mxCell>
        <mxCell id="P7aK7pZ-oNJQxpM8Jncw-6" value="Постоянно пишет лог" style="text;html=1;align=center;verticalAlign=middle;whiteSpace=wrap;rounded=0;" vertex="1" parent="1">
          <mxGeometry x="180" y="130" width="60" height="30" as="geometry" />
        </mxCell>
        <mxCell id="P7aK7pZ-oNJQxpM8Jncw-7" value="" style="endArrow=none;dashed=1;html=1;rounded=0;" edge="1" parent="1">
          <mxGeometry width="50" height="50" relative="1" as="geometry">
            <mxPoint x="40" y="200" as="sourcePoint" />
            <mxPoint x="480" y="200" as="targetPoint" />
          </mxGeometry>
        </mxCell>
        <mxCell id="P7aK7pZ-oNJQxpM8Jncw-8" value="" style="endArrow=classic;html=1;rounded=0;" edge="1" parent="1">
          <mxGeometry width="50" height="50" relative="1" as="geometry">
            <mxPoint x="41" y="286" as="sourcePoint" />
            <mxPoint x="141" y="286" as="targetPoint" />
          </mxGeometry>
        </mxCell>
        <mxCell id="P7aK7pZ-oNJQxpM8Jncw-9" value="Пришел запрос от пользователя на получение графика" style="text;html=1;align=center;verticalAlign=middle;whiteSpace=wrap;rounded=0;" vertex="1" parent="1">
          <mxGeometry x="40" y="210" width="90" height="80" as="geometry" />
        </mxCell>
        <mxCell id="P7aK7pZ-oNJQxpM8Jncw-10" value="" style="endArrow=classic;html=1;rounded=0;" edge="1" parent="1">
          <mxGeometry width="50" height="50" relative="1" as="geometry">
            <mxPoint x="140" y="320" as="sourcePoint" />
            <mxPoint x="400" y="320" as="targetPoint" />
          </mxGeometry>
        </mxCell>
        <mxCell id="P7aK7pZ-oNJQxpM8Jncw-11" value="" style="endArrow=classic;html=1;rounded=0;" edge="1" parent="1">
          <mxGeometry width="50" height="50" relative="1" as="geometry">
            <mxPoint x="400" y="400" as="sourcePoint" />
            <mxPoint x="270" y="400" as="targetPoint" />
          </mxGeometry>
        </mxCell>
        <mxCell id="P7aK7pZ-oNJQxpM8Jncw-12" value="" style="endArrow=classic;html=1;rounded=0;" edge="1" parent="1">
          <mxGeometry width="50" height="50" relative="1" as="geometry">
            <mxPoint x="400" y="470" as="sourcePoint" />
            <mxPoint x="140" y="470" as="targetPoint" />
          </mxGeometry>
        </mxCell>
        <mxCell id="P7aK7pZ-oNJQxpM8Jncw-13" value="Запрос на получение графика через Http" style="text;html=1;align=center;verticalAlign=middle;whiteSpace=wrap;rounded=0;" vertex="1" parent="1">
          <mxGeometry x="180" y="260" width="60" height="60" as="geometry" />
        </mxCell>
        <mxCell id="P7aK7pZ-oNJQxpM8Jncw-14" value="SQL запрос на необходимые данные" style="text;html=1;align=center;verticalAlign=middle;whiteSpace=wrap;rounded=0;" vertex="1" parent="1">
          <mxGeometry x="290" y="340" width="80" height="60" as="geometry" />
        </mxCell>
        <mxCell id="P7aK7pZ-oNJQxpM8Jncw-15" value="Ответ на запрос (график)" style="text;html=1;align=center;verticalAlign=middle;whiteSpace=wrap;rounded=0;" vertex="1" parent="1">
          <mxGeometry x="180" y="420" width="60" height="50" as="geometry" />
        </mxCell>
      </root>
    </mxGraphModel>
  </diagram>
</mxfile>
